<svg width="31" height="32" viewBox="0 0 31 32" fill="none" xmlns="http://www.w3.org/2000/svg">
<g id="Group 1">
<path id="Vector" d="M16.8715 31.5762C15.6985 31.5762 14.5426 31.5411 13.4439 31.5075C12.1194 31.4668 10.8688 31.4296 9.80523 31.4603C8.65713 31.5236 7.50869 31.3421 6.43212 30.9273C5.35554 30.5125 4.37411 29.8733 3.54949 29.05C0.256257 25.5613 0.442379 19.0921 0.592368 13.8935C0.631449 12.5324 0.668577 11.2467 0.638291 10.1543C0.576815 8.97454 0.753452 7.7945 1.15709 6.68828C1.56072 5.58205 2.18264 4.57356 2.98377 3.72619C6.37912 0.341946 12.6754 0.534745 17.7332 0.686853C19.0582 0.727024 20.3093 0.766175 21.3719 0.734044L21.4012 0.733542C22.5445 0.673351 23.6877 0.856392 24.759 1.27123C25.8303 1.68606 26.8067 2.32374 27.6271 3.14433C30.9209 6.63299 30.7342 13.1023 30.5843 18.3009C30.5452 19.6619 30.508 20.9476 30.5383 22.04C30.5998 23.2199 30.4232 24.4 30.0195 25.5063C29.6159 26.6126 28.994 27.6212 28.1929 28.4686C25.5352 31.1179 21.0992 31.5762 16.8715 31.5762Z" fill="white"/>
<path id="Vector_2" d="M23.1444 10.1243C22.6912 10.1105 22.261 9.91562 21.9455 9.58096C21.63 9.24629 21.454 8.7983 21.455 8.33233C21.456 7.86636 21.6339 7.41917 21.9508 7.08593C22.2678 6.7527 22.6988 6.5597 23.1521 6.54803C23.6053 6.56176 24.0355 6.7567 24.351 7.09136C24.6665 7.42603 24.8425 7.87401 24.8415 8.33999C24.8405 8.80596 24.6626 9.25315 24.3457 9.58638C24.0287 9.91962 23.5977 10.1126 23.1444 10.1243V10.1243Z" fill="#E6E6E6"/>
<path id="Vector_3" d="M15.5885 23.8534C14.0959 23.8534 12.6367 23.3986 11.3955 22.5464C10.1544 21.6942 9.18699 20.483 8.61572 19.0659C8.04445 17.6487 7.89495 16.0893 8.18611 14.5848C8.47728 13.0804 9.19604 11.6984 10.2515 10.6137C11.307 9.52902 12.6517 8.79031 14.1157 8.491C15.5797 8.1917 17.0972 8.34526 18.4763 8.93223C19.8554 9.5192 21.0341 10.5132 21.8635 11.7886C22.6928 13.064 23.1355 14.5635 23.1355 16.0974C23.1333 18.1536 22.3375 20.125 20.9227 21.5791C19.5078 23.0331 17.5895 23.851 15.5885 23.8534ZM15.5885 10.3983C14.4916 10.3982 13.4193 10.7325 12.5072 11.3587C11.5951 11.9849 10.8842 12.8751 10.4644 13.9165C10.0446 14.958 9.93477 16.1039 10.1488 17.2095C10.3627 18.3151 10.891 19.3306 11.6666 20.1277C12.4423 20.9248 13.4305 21.4676 14.5064 21.6875C15.5822 21.9074 16.6974 21.7945 17.7108 21.3631C18.7242 20.9317 19.5905 20.2012 20.1999 19.2639C20.8093 18.3266 21.1345 17.2247 21.1345 16.0974C21.1328 14.5865 20.5479 13.1379 19.5082 12.0694C18.4685 11.001 17.0589 10.4 15.5885 10.3983V10.3983Z" fill="#E6E6E6"/>
</g>
</svg>
