<svg width="33" height="28" viewBox="0 0 33 28" fill="none" xmlns="http://www.w3.org/2000/svg">
<path id="Vector" d="M28.6176 5.12634L28.6144 5.11881C29.8793 4.33552 30.8254 3.10792 31.2776 1.66313C30.1104 2.37548 28.8355 2.88214 27.5057 3.16212C26.8663 2.28845 26.0373 1.5802 25.0846 1.09379C24.132 0.607369 23.082 0.356213 22.0182 0.360278C20.0942 0.360654 18.2491 1.14646 16.8888 2.5448C15.5285 3.94315 14.7645 5.83948 14.7648 7.8167L14.7655 7.91999C10.704 7.34904 7.00566 5.21287 4.4197 1.9443C4.27301 1.75944 4.07575 1.62402 3.85339 1.55557C3.63104 1.48711 3.39383 1.48877 3.1724 1.56031C3.01938 1.58107 2.87275 1.63651 2.74313 1.72262C2.6135 1.80873 2.50413 1.92337 2.42289 2.05823C1.8186 3.21897 1.55115 4.53356 1.65231 5.84586C1.65081 7.02065 1.92467 8.17853 2.45073 9.22156C2.21216 9.2684 1.99694 9.39926 1.84214 9.59159C1.68733 9.78393 1.60262 10.0257 1.6026 10.2753V10.356C1.60143 11.3986 1.8171 12.4295 2.23517 13.3796C2.65323 14.3296 3.26404 15.1769 4.02667 15.8646L4.00084 15.8935C3.88093 16.0328 3.79832 16.2018 3.76112 16.3838C3.72392 16.5658 3.73342 16.7546 3.78866 16.9318C4.0983 17.9194 4.60771 18.8285 5.28347 19.5995C5.95922 20.3705 6.78604 20.9858 7.70961 21.4052C5.77955 22.2391 3.66873 22.532 1.59255 22.2539C1.39328 22.2298 1.19147 22.2652 1.01125 22.3558C0.831035 22.4465 0.680029 22.5886 0.576302 22.7651C0.539805 22.8085 0.506363 22.8545 0.476243 22.9028C0.393986 23.0346 0.337806 23.1817 0.310872 23.3358C0.283939 23.4898 0.286778 23.6478 0.319269 23.8007C0.35176 23.9537 0.413243 24.0985 0.500212 24.227C0.58718 24.3555 0.697954 24.4652 0.826159 24.5497C3.79877 26.5135 7.25891 27.5559 10.7928 27.5521C22.7775 27.5521 29.2924 17.3308 29.2924 8.54265C29.2922 8.11937 29.2615 7.69669 29.2008 7.27804C30.3321 6.41153 31.3109 5.35274 32.0951 4.1474L32.0976 4.14338C30.9915 4.64651 29.8186 4.97778 28.6176 5.12634V5.12634Z" fill="white"/>
</svg>
